<?xml version="1.0" encoding="UTF-8" standalone="no"?>
<svg
   xmlns:dc="http://purl.org/dc/elements/1.1/"
   xmlns:cc="http://creativecommons.org/ns#"
   xmlns:rdf="http://www.w3.org/1999/02/22-rdf-syntax-ns#"
   xmlns:svg="http://www.w3.org/2000/svg"
   xmlns="http://www.w3.org/2000/svg"
   viewBox="0 0 264.94666 28.826668"
   height="28.826668"
   width="264.94666"
   xml:space="preserve"
   id="svg2"
   version="1.1"><metadata
     id="metadata8"><rdf:RDF><cc:Work
         rdf:about=""><dc:format>image/svg+xml</dc:format><dc:type
           rdf:resource="http://purl.org/dc/dcmitype/StillImage" /></cc:Work></rdf:RDF></metadata><defs
     id="defs6" /><g
     transform="matrix(1.3333333,0,0,-1.3333333,0,28.826667)"
     id="g10"><g
       transform="scale(0.1)"
       id="g12"><path
         id="path14"
         style="fill:#ec1e27;fill-opacity:1;fill-rule:nonzero;stroke:none"
         d="M 125.383,61.7422 C 125.563,44.6992 119.535,30.1484 107.297,18.0898 95.0586,6.03125 80.2344,0.00390625 62.8281,0.00390625 45.418,0.00390625 30.6406,5.98828 18.4961,17.9531 6.34375,29.9219 0.179688,44.8789 0,62.832 h 21.9766 c -0.1836,-11.5 3.7031,-21.4453 11.6601,-29.8398 7.9531,-8.3945 17.543,-12.6836 28.7578,-12.8633 11.7539,-0.1797 21.836,3.8086 30.2422,11.9727 8.4143,8.164 12.4373,18.1406 12.0743,29.9336 -0.543,19.414 -13.3477,33.0195 -38.4219,40.8198 l -22.2578,6.938 c -11.7813,3.629 -20.9297,9.934 -27.4493,18.914 -6.5234,8.984 -9.87497,19.738 -10.05466,32.262 -0.18359,15.426 5.52736,28.539 17.13286,39.336 11.6054,10.793 25.2968,16.101 41.0703,15.922 15.5937,-0.18 28.8281,-5.848 39.7105,-17 10.879,-11.149 16.317,-24.524 16.317,-40.118 H 98.793 c 0.1758,9.868 -3.0313,18.36 -9.6328,25.485 -6.5977,7.121 -14.6914,10.961 -24.2657,11.508 -10.125,0.543 -19.0312,-2.782 -26.7148,-9.965 -7.6836,-7.192 -11.3477,-15.789 -10.9844,-25.793 0.3594,-16.379 8.3399,-27.024 23.9375,-31.938 l 25.293,-7.918 C 108.699,110.336 125.016,90.75 125.383,61.7422" /><path
         id="path16"
         style="fill:#ec1e27;fill-opacity:1;fill-rule:nonzero;stroke:none"
         d="M 281.77,213.508 210.238,74.2461 V 3.8125 H 189.023 V 74.5273 L 118.309,213.508 h 21.972 l 59,-117.7424 59.25,117.7424 h 23.239" /><path
         id="path18"
         style="fill:#ec1e27;fill-opacity:1;fill-rule:nonzero;stroke:none"
         d="M 440.059,144.695 C 439.695,128.379 434.16,114.277 423.449,102.402 412.742,90.5273 399.496,83.8633 383.707,82.4141 l -5.984,-0.586 57.945,-78.0156 h -25.797 l -70.715,94.6484 h 20.399 c 18.312,0 32.816,4.7151 43.515,14.1411 10.7,9.429 15.684,21.304 14.957,35.632 -0.543,13.055 -5.257,23.661 -14.14,31.821 -9.614,8.883 -22.301,13.324 -38.078,13.324 H 319.027 V 3.8125 H 297.543 V 212.965 h 66.906 c 23.207,0 41.703,-6.391 55.485,-19.176 13.777,-12.785 20.488,-29.148 20.125,-49.094" /><path
         id="path20"
         style="fill:#ec1e27;fill-opacity:1;fill-rule:nonzero;stroke:none"
         d="M 483.027,3.8125 H 462.359 V 213.234 h 20.668 V 3.8125" /><path
         id="path22"
         style="fill:#ec1e27;fill-opacity:1;fill-rule:nonzero;stroke:none"
         d="M 674.23,3.8125 H 650.848 L 530.625,186.047 V 3.8125 H 508.867 V 213.234 h 28.285 L 652.742,37.5469 V 213.234 H 674.23 V 3.8125" /><path
         id="path24"
         style="fill:#ec1e27;fill-opacity:1;fill-rule:nonzero;stroke:none"
         d="M 917.379,100.094 C 914.113,67.4531 899.973,41.7969 874.949,23.1211 854.094,7.52734 831.34,-0.179688 806.684,0.00390625 776.398,0.183594 750.109,10.8828 727.809,32.0977 c -22.305,21.2148 -33.364,46.6875 -33.18,76.4253 0.176,30.461 10.922,56.028 32.226,76.7 21.305,20.668 47.461,31.004 78.469,31.004 22.66,0 41.699,-4.352 57.114,-13.055 16.5,-9.43 30.46,-24.844 41.886,-46.238 h -23.39 c -18.496,26.836 -44.063,40.074 -76.7,39.711 -23.574,-0.184 -44.058,-8.614 -61.468,-25.293 -17.95,-17.047 -27.289,-37.629 -28.012,-61.739 -0.543,-24.3005 8.066,-44.9724 25.836,-62.0114 17.226,-16.6875 38.801,-25.8399 64.734,-27.4727 17.582,-1.2695 34.949,4.1719 52.082,16.3203 17.137,12.1446 28.696,27.1055 34.68,44.875 H 774.859 v 18.7698 h 142.52" /><path
         id="path26"
         style="fill:#ec1e27;fill-opacity:1;fill-rule:nonzero;stroke:none"
         d="m 1042.48,3.8125 h -60.101 c -15.777,0 -28.742,4.44141 -38.895,13.3281 -10.156,8.8789 -15.23,21.5742 -15.23,38.0742 V 161.559 c 0,16.5 5.074,29.191 15.23,38.078 10.153,8.883 23.118,13.328 38.895,13.328 h 60.101 v -19.586 h -60.277 c -10.914,0 -18.551,-2.176 -22.914,-6.524 -6.91,-7.253 -10.363,-14.511 -10.363,-21.761 v -45.145 h 70.164 V 99.8203 H 948.926 V 51.5781 c 0,-7.2304 3.453,-14.4531 10.363,-21.6797 4.363,-4.3359 12,-6.5039 22.914,-6.5039 h 60.277 V 3.8125" /><path
         id="path28"
         style="fill:#ec1e27;fill-opacity:1;fill-rule:nonzero;stroke:none"
         d="m 1346.2,93.293 -39.75,95.703 -40.67,-95.703 z m 60.46,-89.4805 h -23.34 l -29.74,70.7148 h -96.96 L 1227.29,3.8125 h -26.51 l 93.56,209.4215 h 23.39 L 1406.66,3.8125" /><path
         id="path30"
         style="fill:#ec1e27;fill-opacity:1;fill-rule:nonzero;stroke:none"
         d="m 1528.78,61.7422 c 0.18,-17.043 -5.85,-31.5938 -18.09,-43.6524 -12.24,-12.05855 -27.06,-18.08589375 -44.47,-18.08589375 -17.4,0 -32.18,5.98437375 -44.33,17.94919375 -12.15,11.9688 -18.31,26.9258 -18.49,44.8789 h 21.97 c -0.18,-11.5 3.71,-21.4453 11.66,-29.8398 7.96,-8.3945 17.55,-12.6836 28.76,-12.8633 11.76,-0.1797 21.84,3.8086 30.25,11.9727 8.41,8.164 12.43,18.1406 12.07,29.9336 -0.55,19.414 -13.35,33.0195 -38.42,40.8198 l -22.26,6.938 c -11.78,3.629 -20.93,9.934 -27.45,18.914 -6.52,8.984 -9.88,19.738 -10.05,32.262 -0.19,15.426 5.52,28.539 17.13,39.336 11.6,10.793 25.29,16.101 41.07,15.922 15.59,-0.18 28.83,-5.848 39.71,-17 10.88,-11.149 16.32,-24.524 16.32,-40.118 h -21.97 c 0.18,9.868 -3.03,18.36 -9.63,25.485 -6.6,7.121 -14.69,10.961 -24.27,11.508 -10.12,0.543 -19.03,-2.782 -26.71,-9.965 -7.69,-7.192 -11.35,-15.789 -10.99,-25.793 0.36,-16.379 8.34,-27.024 23.94,-31.938 l 25.29,-7.918 c 32.28,-10.152 48.59,-29.738 48.96,-58.7458" /><path
         id="path32"
         style="fill:#ec1e27;fill-opacity:1;fill-rule:nonzero;stroke:none"
         d="m 1674.02,61.7422 c 0.17,-17.043 -5.85,-31.5938 -18.09,-43.6524 -12.24,-12.05855 -27.06,-18.08589375 -44.47,-18.08589375 -17.41,0 -32.19,5.98437375 -44.33,17.94919375 -12.15,11.9688 -18.32,26.9258 -18.5,44.8789 h 21.98 c -0.18,-11.5 3.7,-21.4453 11.66,-29.8398 7.95,-8.3945 17.54,-12.6836 28.76,-12.8633 11.75,-0.1797 21.83,3.8086 30.24,11.9727 8.41,8.164 12.43,18.1406 12.07,29.9336 -0.54,19.414 -13.34,33.0195 -38.42,40.8198 l -22.26,6.938 c -11.78,3.629 -20.93,9.934 -27.45,18.914 -6.52,8.984 -9.87,19.738 -10.05,32.262 -0.18,15.426 5.53,28.539 17.13,39.336 11.61,10.793 25.3,16.101 41.07,15.922 15.6,-0.18 28.83,-5.848 39.71,-17 10.88,-11.149 16.32,-24.524 16.32,-40.118 h -21.97 c 0.18,9.868 -3.02,18.36 -9.63,25.485 -6.59,7.121 -14.69,10.961 -24.27,11.508 -10.12,0.543 -19.03,-2.782 -26.71,-9.965 -7.68,-7.192 -11.34,-15.789 -10.98,-25.793 0.36,-16.379 8.34,-27.024 23.93,-31.938 l 25.3,-7.918 c 32.27,-10.152 48.59,-29.738 48.96,-58.7458" /><path
         id="path34"
         style="fill:#ec1e27;fill-opacity:1;fill-rule:nonzero;stroke:none"
         d="M 1724.87,3.8125 H 1704.2 V 213.234 h 20.67 V 3.8125" /><path
         id="path36"
         style="fill:#ec1e27;fill-opacity:1;fill-rule:nonzero;stroke:none"
         d="m 1870.11,61.7422 c 0.18,-17.043 -5.84,-31.5938 -18.08,-43.6524 -12.24,-12.05855 -27.07,-18.08589375 -44.47,-18.08589375 -17.41,0 -32.19,5.98437375 -44.33,17.94919375 -12.16,11.9688 -18.32,26.9258 -18.5,44.8789 h 21.97 c -0.18,-11.5 3.71,-21.4453 11.67,-29.8398 7.95,-8.3945 17.54,-12.6836 28.75,-12.8633 11.76,-0.1797 21.84,3.8086 30.25,11.9727 8.41,8.164 12.43,18.1406 12.07,29.9336 -0.54,19.414 -13.35,33.0195 -38.42,40.8198 l -22.26,6.938 c -11.78,3.629 -20.93,9.934 -27.45,18.914 -6.52,8.984 -9.87,19.738 -10.05,32.262 -0.19,15.426 5.53,28.539 17.13,39.336 11.6,10.793 25.3,16.101 41.07,15.922 15.59,-0.18 28.83,-5.848 39.71,-17 10.88,-11.149 16.32,-24.524 16.32,-40.118 h -21.97 c 0.18,9.868 -3.03,18.36 -9.63,25.485 -6.6,7.121 -14.69,10.961 -24.27,11.508 -10.12,0.543 -19.03,-2.782 -26.71,-9.965 -7.69,-7.192 -11.35,-15.789 -10.98,-25.793 0.36,-16.379 8.34,-27.024 23.93,-31.938 l 25.3,-7.918 c 32.27,-10.152 48.59,-29.738 48.95,-58.7458" /><path
         id="path38"
         style="fill:#ec1e27;fill-opacity:1;fill-rule:nonzero;stroke:none"
         d="m 1987.06,193.379 h -47.59 V 3.8125 H 1918.8 V 193.379 h -47.33 v 19.586 h 115.59 v -19.586" /><path
         id="path40"
         style="fill:#ec1e27;fill-opacity:1;fill-rule:nonzero;stroke:none"
         d="m 1201.02,87.9883 -26.62,-0.0078 c -0.15,0 -0.29,-0.043 -0.41,-0.1094 -0.12,3.9844 -0.4,7.0391 -0.74,7.0391 -0.06,0 -0.13,-0.1172 -0.19,-0.3204 h -1.77 c -0.05,0.1993 -0.11,0.3204 -0.16,0.3204 -0.38,-0.0039 -0.68,-4.9805 -0.67,-11.0079 -0.01,-6.0273 0.3,-11.0078 0.67,-11.0078 0.06,0 0.11,0.1133 0.16,0.3047 h 1.79 c 0.06,-0.1914 0.12,-0.3008 0.18,-0.3008 0.36,-0.0039 0.66,3.0938 0.76,7.5821 0.11,-0.0547 0.24,-0.0938 0.38,-0.0938 l 26.61,0.0078 c 0.05,-8.5976 0.78,-14.8632 0.83,-14.5234 h 2.98 c 0.37,0.2656 0.75,10.5898 0.75,10.5898 l 9.54,-0.0117 v -0.0117 l 9.24,0.0039 0.2,0.8516 8.43,0.0039 0.27,0.1484 142.58,0.0391 c 0.05,-0.1211 0.11,-0.1875 0.16,-0.1875 0.06,0 0.11,0.0664 0.16,0.1875 h 1.78 c 0.06,-0.1211 0.12,-0.1875 0.19,-0.1875 0.06,0 0.12,0.0664 0.18,0.1875 h 6.65 c 0.05,-0.1172 0.1,-0.1875 0.16,-0.1875 0.05,0 0.1,0.0703 0.15,0.1875 h 1.79 c 0.06,-0.1172 0.12,-0.1875 0.18,-0.1875 0.06,0 0.13,0.0703 0.19,0.1875 h 1.19 l 2.38,2.4609 4.21,0.0117 c 0.11,-1.957 0.31,-3.2461 0.54,-3.2461 0.05,0 0.1,0.0821 0.15,0.2188 l 1.94,0.0039 h 0.08 v 0.0703 c 0.15,0.1836 0.3,0.8086 0.41,1.7031 l 19.46,0.8633 1.44,-1.1562 4.58,3.6406 13.89,0.0391 v 0.5625 h 0.07 l 2.57,1.7617 v 0.0039 l 33.62,0.0117 -5.06,0.4297 -28.56,-0.0078 -2.58,1.6367 h -0.07 v 0.4883 l -14.71,-0.0039 -0.13,0.0703 -3.58,2.875 -0.87,-0.6875 -20.11,1.2734 c -0.1,0.793 -0.23,1.3399 -0.37,1.5078 v 0.0703 l -0.08,-0.0039 h -1.95 c -0.04,0.1368 -0.1,0.2149 -0.15,0.2149 -0.24,0 -0.45,-1.4844 -0.56,-3.6875 h -4.19 l -2.34,2.0469 h -1.22 c -0.06,0.125 -0.13,0.2031 -0.19,0.1992 -0.07,0 -0.13,-0.0703 -0.19,-0.1953 h -1.78 c -0.05,0.125 -0.1,0.1953 -0.16,0.1953 -0.05,0 -0.11,-0.0742 -0.16,-0.1992 h -6.64 c -0.06,0.125 -0.12,0.1992 -0.19,0.1992 -0.06,0 -0.13,-0.0742 -0.19,-0.1992 h -1.77 c -0.06,0.125 -0.11,0.1992 -0.17,0.1992 -0.05,0 -0.1,-0.0742 -0.16,-0.2032 l -142.73,-0.0351 -0.22,0.2031 -8.43,-0.0039 -0.34,0.7305 -18.53,0.0234 c 0,0 -0.29,9.7227 -0.78,9.7227 l -2.96,0.004 c -0.05,0.336 -0.74,-5.5275 -0.81,-13.3087" /></g></g></svg>